<?xml version="1.0" encoding="UTF-8"?><svg xmlns="http://www.w3.org/2000/svg" xmlns:xlink="http://www.w3.org/1999/xlink" contentScriptType="text/ecmascript" zoomAndPan="magnify" width="1000" contentStyleType="text/css" preserveAspectRatio="xMidYMid meet" height="400" version="1.0"><g><path style="stroke: #00000; stroke-width: 5px; stroke-opacity: 1" d="M 0.0, 0.0 L 798.0, 0.0"/></g><g><path style="stroke: #00000; stroke-width: 5px; stroke-opacity: 1" d="M 0.0, 0.0 L 798.0, 0.0"/></g><g><path style="stroke: #00000; stroke-width: 5px; stroke-opacity: 1" d="M 0.0, 0.0 L 798.0, 0.0"/></g><g><path style="stroke: #00000; stroke-width: 5px; stroke-opacity: 1" d="M 0.0, 0.0 L 798.0, 0.0"/></g><g><path style="stroke: #00000; stroke-width: 5px; stroke-opacity: 1" d="M 0.0, 0.0 L 798.0, 0.0"/></g><g><path style="stroke: #00000; stroke-width: 5px; stroke-opacity: 1" d="M 0.0, 0.0 L 798.0, 0.0"/></g><g><path style="stroke: #00000; stroke-width: 5px; stroke-opacity: 1" d="M 0.0, 0.0 L 798.0, 0.0"/></g><g><path style="stroke: #00000; stroke-width: 5px; stroke-opacity: 1" d="M 0.0, 0.0 L 798.0, 0.0"/></g><g><path style="stroke: #00000; stroke-width: 5px; stroke-opacity: 1" d="M 0.0, 0.0 L 798.0, 0.0"/></g><g><path style="stroke: #00000; stroke-width: 5px; stroke-opacity: 1" d="M 0.0, 0.0 L 798.0, 0.0"/></g><g><path style="stroke: #00000; stroke-width: 5px; stroke-opacity: 1" d="M 0.0, 0.0 L 798.0, 0.0"/></g><g><path style="stroke: #00000; stroke-width: 5px; stroke-opacity: 1" d="M 0.0, 0.0 L 798.0, 0.0"/></g><g><path style="stroke: #00000; stroke-width: 5px; stroke-opacity: 1" d="M 0.0, 0.0 L 798.0, 0.0"/></g><g><path style="stroke: #00000; stroke-width: 5px; stroke-opacity: 1" d="M 0.0, 0.0 L 798.0, 0.0"/></g><g><path style="stroke: #00000; stroke-width: 5px; stroke-opacity: 1" d="M 0.0, 0.0 L 798.0, 0.0"/></g><g><path style="stroke: #00000; stroke-width: 5px; stroke-opacity: 1" d="M 0.0, 0.0 L 798.0, 0.0"/></g><g><path style="stroke: #00000; stroke-width: 5px; stroke-opacity: 1" d="M 0.0, 0.0 L 798.0, 0.0"/></g><g><path style="stroke: #00000; stroke-width: 5px; stroke-opacity: 1" d="M 0.0, 0.0 L 798.0, 0.0"/></g><g><path style="stroke: #00000; stroke-width: 5px; stroke-opacity: 1" d="M 0.0, 0.0 L 798.0, 0.0"/></g><g><path style="stroke: #00000; stroke-width: 5px; stroke-opacity: 1" d="M 0.0, 0.0 L 798.0, 0.0"/></g><g><path style="stroke: #00000; stroke-width: 5px; stroke-opacity: 1" d="M 0.0, 0.0 L 798.0, 0.0"/></g><g><path style="stroke: #00000; stroke-width: 5px; stroke-opacity: 1" d="M 0.0, 0.0 L 798.0, 0.0"/></g><g><path style="stroke: #00000; stroke-width: 5px; stroke-opacity: 1" d="M 0.0, 0.0 L 798.0, 0.0"/></g><g><path style="stroke: #00000; stroke-width: 5px; stroke-opacity: 1" d="M 0.0, 0.0 L 798.0, 0.0"/></g><g><path style="stroke: #00000; stroke-width: 5px; stroke-opacity: 1" d="M 0.0, 0.0 L 798.0, 0.0"/></g><g><path style="stroke: #00000; stroke-width: 5px; stroke-opacity: 1" d="M 0.0, 0.0 L 798.0, 0.0"/></g><g><path style="stroke: #00000; stroke-width: 5px; stroke-opacity: 1" d="M 0.0, 0.0 L 798.0, 0.0"/></g><g><path style="stroke: #00000; stroke-width: 5px; stroke-opacity: 1" d="M 0.0, 0.0 L 798.0, 0.0"/></g><g><path style="stroke: #00000; stroke-width: 5px; stroke-opacity: 1" d="M 0.0, 0.0 L 798.0, 0.0"/></g><g><path style="stroke: #00000; stroke-width: 5px; stroke-opacity: 1" d="M 0.0, 0.0 L 798.0, 0.0"/></g><g><path style="stroke: #00000; stroke-width: 5px; stroke-opacity: 1" d="M 0.0, 0.0 L 798.0, 0.0"/></g><g><path style="stroke: #00000; stroke-width: 5px; stroke-opacity: 1" d="M 0.0, 0.0 L 798.0, 0.0"/></g><g><path style="stroke: #00000; stroke-width: 5px; stroke-opacity: 1" d="M 0.0, 0.0 L 798.0, 0.0"/></g><g><path style="stroke: #00000; stroke-width: 5px; stroke-opacity: 1" d="M 0.0, 0.0 L 798.0, 0.0"/></g><g><path style="stroke: #00000; stroke-width: 5px; stroke-opacity: 1" d="M 0.0, 0.0 L 798.0, 0.0"/></g><g><path style="stroke: #00000; stroke-width: 5px; stroke-opacity: 1" d="M 0.0, 0.0 L 798.0, 0.0"/></g><g><path style="stroke: #00000; stroke-width: 5px; stroke-opacity: 1" d="M 0.0, 0.0 L 798.0, 0.0"/></g><g><path style="stroke: #00000; stroke-width: 5px; stroke-opacity: 1" d="M 0.0, 0.0 L 798.0, 0.0"/></g><g><path style="stroke: #00000; stroke-width: 5px; stroke-opacity: 1" d="M 0.0, 0.0 L 798.0, 0.0"/></g><g><path style="stroke: #00000; stroke-width: 5px; stroke-opacity: 1" d="M 0.0, 0.0 L 798.0, 0.0"/></g><g><path style="stroke: #00000; stroke-width: 5px; stroke-opacity: 1" d="M 0.0, 0.0 L 798.0, 0.0"/></g><g><path style="stroke: #00000; stroke-width: 5px; stroke-opacity: 1" d="M 0.0, 0.0 L 798.0, 0.0"/></g><g><path style="stroke: #00000; stroke-width: 5px; stroke-opacity: 1" d="M 0.0, 0.0 L 798.0, 0.0"/></g><g><path style="stroke: #00000; stroke-width: 5px; stroke-opacity: 1" d="M 0.0, 0.0 L 798.0, 0.0"/></g><g><path style="stroke: #00000; stroke-width: 5px; stroke-opacity: 1" d="M 0.0, 0.0 L 798.0, 0.0"/></g><g><path style="stroke: #00000; stroke-width: 5px; stroke-opacity: 1" d="M 0.0, 0.0 L 798.0, 0.0"/></g><g><path style="stroke: #00000; stroke-width: 5px; stroke-opacity: 1" d="M 0.0, 0.0 L 798.0, 0.0"/></g><g><path style="stroke: #00000; stroke-width: 5px; stroke-opacity: 1" d="M 0.0, 0.0 L 798.0, 0.0"/></g><g><path style="stroke: #00000; stroke-width: 5px; stroke-opacity: 1" d="M 0.0, 0.0 L 798.0, 0.0"/></g><g><path style="stroke: #00000; stroke-width: 5px; stroke-opacity: 1" d="M 0.0, 0.0 L 798.0, 0.0"/></g><g><path style="stroke: #00000; stroke-width: 5px; stroke-opacity: 1" d="M 0.0, 0.0 L 798.0, 0.0"/></g><g><path style="stroke: #00000; stroke-width: 5px; stroke-opacity: 1" d="M 0.0, 0.0 L 798.0, 0.0"/></g><g><path style="stroke: #00000; stroke-width: 5px; stroke-opacity: 1" d="M 0.0, 0.0 L 798.0, 0.0"/></g><g><path style="stroke: #00000; stroke-width: 5px; stroke-opacity: 1" d="M 0.0, 0.0 L 798.0, 0.0"/></g><g><path style="stroke: #00000; stroke-width: 5px; stroke-opacity: 1" d="M 0.0, 0.0 L 798.0, 0.0"/></g><g><path style="stroke: #00000; stroke-width: 5px; stroke-opacity: 1" d="M 0.0, 0.0 L 798.0, 0.0"/></g><g><path style="stroke: #00000; stroke-width: 5px; stroke-opacity: 1" d="M 0.0, 0.0 L 798.0, 0.0"/></g><g><path style="stroke: #00000; stroke-width: 5px; stroke-opacity: 1" d="M 0.0, 0.0 L 798.0, 0.0"/></g><g><path style="stroke: #00000; stroke-width: 5px; stroke-opacity: 1" d="M 0.0, 0.0 L 798.0, 0.0"/></g><g><path style="stroke: #00000; stroke-width: 5px; stroke-opacity: 1" d="M 0.0, 0.0 L 798.0, 0.0"/></g><g><path style="stroke: #00000; stroke-width: 5px; stroke-opacity: 1" d="M 0.0, 0.0 L 798.0, 0.0"/></g><g><path style="stroke: #00000; stroke-width: 5px; stroke-opacity: 1" d="M 0.0, 0.0 L 798.0, 0.0"/></g><g><path style="stroke: #00000; stroke-width: 5px; stroke-opacity: 1" d="M 0.0, 0.0 L 798.0, 0.0"/></g><g><path style="stroke: #00000; stroke-width: 5px; stroke-opacity: 1" d="M 0.0, 0.0 L 798.0, 0.0"/></g><g><path style="stroke: #00000; stroke-width: 5px; stroke-opacity: 1" d="M 0.0, 0.0 L 798.0, 0.0"/></g><g><path style="stroke: #00000; stroke-width: 5px; stroke-opacity: 1" d="M 0.0, 0.0 L 798.0, 0.0"/></g><g><path style="stroke: #00000; stroke-width: 5px; stroke-opacity: 1" d="M 0.0, 0.0 L 798.0, 0.0"/></g><g><path style="stroke: #00000; stroke-width: 5px; stroke-opacity: 1" d="M 0.0, 0.0 L 798.0, 0.0"/></g><g><path style="stroke: #00000; stroke-width: 5px; stroke-opacity: 1" d="M 0.0, 0.0 L 798.0, 0.0"/></g><g><path style="stroke: #00000; stroke-width: 5px; stroke-opacity: 1" d="M 0.0, 0.0 L 798.0, 0.0"/></g><g><path style="stroke: #00000; stroke-width: 5px; stroke-opacity: 1" d="M 0.0, 0.0 L 798.0, 0.0"/></g><g><path style="stroke: #00000; stroke-width: 5px; stroke-opacity: 1" d="M 0.0, 0.0 L 798.0, 0.0"/></g><g><path style="stroke: #00000; stroke-width: 5px; stroke-opacity: 1" d="M 0.0, 0.0 L 798.0, 0.0"/></g><g><path style="stroke: #00000; stroke-width: 5px; stroke-opacity: 1" d="M 0.0, 0.0 L 798.0, 0.0"/></g><g><path style="stroke: #00000; stroke-width: 5px; stroke-opacity: 1" d="M 0.0, 0.0 L 798.0, 0.0"/></g><g><path style="stroke: #00000; stroke-width: 5px; stroke-opacity: 1" d="M 0.0, 0.0 L 798.0, 0.0"/></g><g><path style="stroke: #00000; stroke-width: 5px; stroke-opacity: 1" d="M 0.0, 0.0 L 798.0, 0.0"/></g><g><path style="stroke: #00000; stroke-width: 5px; stroke-opacity: 1" d="M 0.0, 0.0 L 798.0, 0.0"/></g><g><path style="stroke: #00000; stroke-width: 5px; stroke-opacity: 1" d="M 0.0, 0.0 L 798.0, 0.0"/></g><g><path style="stroke: #00000; stroke-width: 5px; stroke-opacity: 1" d="M 0.0, 0.0 L 798.0, 0.0"/></g><g><path style="stroke: #00000; stroke-width: 5px; stroke-opacity: 1" d="M 0.0, 0.0 L 798.0, 0.0"/></g><g><path style="stroke: #00000; stroke-width: 5px; stroke-opacity: 1" d="M 0.0, 0.0 L 798.0, 0.0"/></g><g><path style="stroke: #00000; stroke-width: 5px; stroke-opacity: 1" d="M 0.0, 0.0 L 798.0, 0.0"/></g><g><path style="stroke: #00000; stroke-width: 5px; stroke-opacity: 1" d="M 0.0, 0.0 L 798.0, 0.0"/></g><g><path style="stroke: #00000; stroke-width: 5px; stroke-opacity: 1" d="M 0.0, 0.0 L 798.0, 0.0"/></g><g><path style="stroke: #00000; stroke-width: 5px; stroke-opacity: 1" d="M 0.0, 0.0 L 798.0, 0.0"/></g><g><path style="stroke: #00000; stroke-width: 5px; stroke-opacity: 1" d="M 0.0, 0.0 L 798.0, 0.0"/></g><g><path style="stroke: #00000; stroke-width: 5px; stroke-opacity: 1" d="M 0.0, 0.0 L 798.0, 0.0"/></g><g><path style="stroke: #00000; stroke-width: 5px; stroke-opacity: 1" d="M 0.0, 0.0 L 798.0, 0.0"/></g><g><path style="stroke: #00000; stroke-width: 5px; stroke-opacity: 1" d="M 0.0, 0.0 L 798.0, 0.0"/></g><g><path style="stroke: #00000; stroke-width: 5px; stroke-opacity: 1" d="M 0.0, 0.0 L 798.0, 0.0"/></g><g><path style="stroke: #00000; stroke-width: 5px; stroke-opacity: 1" d="M 0.0, 0.0 L 798.0, 0.0"/></g><g><path style="stroke: #00000; stroke-width: 5px; stroke-opacity: 1" d="M 0.0, 0.0 L 798.0, 0.0"/></g><g><path style="stroke: #00000; stroke-width: 5px; stroke-opacity: 1" d="M 0.0, 0.0 L 798.0, 0.0"/></g><g><path style="stroke: #00000; stroke-width: 5px; stroke-opacity: 1" d="M 0.0, 0.0 L 798.0, 0.0"/></g><g><path style="stroke: #00000; stroke-width: 5px; stroke-opacity: 1" d="M 0.0, 0.0 L 798.0, 0.0"/></g><g><path style="stroke: #00000; stroke-width: 5px; stroke-opacity: 1" d="M 0.0, 0.0 L 798.0, 0.0"/></g><g><path style="stroke: #00000; stroke-width: 5px; stroke-opacity: 1" d="M 0.0, 0.0 L 798.0, 0.0"/></g><g><path style="stroke: #00000; stroke-width: 5px; stroke-opacity: 1" d="M 0.0, 0.0 L 798.0, 0.0"/></g><g><path style="stroke: #00000; stroke-width: 5px; stroke-opacity: 1" d="M 0.0, 0.0 L 798.0, 0.0"/></g><g><path style="stroke: #00000; stroke-width: 5px; stroke-opacity: 1" d="M 0.0, 0.0 L 798.0, 0.0"/></g><g><path style="stroke: #00000; stroke-width: 5px; stroke-opacity: 1" d="M 0.0, 0.0 L 798.0, 0.0"/></g><g><path style="stroke: #00000; stroke-width: 5px; stroke-opacity: 1" d="M 0.0, 0.0 L 798.0, 0.0"/></g><g><path style="stroke: #00000; stroke-width: 5px; stroke-opacity: 1" d="M 0.0, 0.0 L 798.0, 0.0"/></g><g><path style="stroke: #00000; stroke-width: 5px; stroke-opacity: 1" d="M 0.0, 0.0 L 798.0, 0.0"/></g><g><path style="stroke: #00000; stroke-width: 5px; stroke-opacity: 1" d="M 0.0, 0.0 L 798.0, 0.0"/></g><g><path style="stroke: #00000; stroke-width: 5px; stroke-opacity: 1" d="M 0.0, 0.0 L 798.0, 0.0"/></g><g><path style="stroke: #00000; stroke-width: 5px; stroke-opacity: 1" d="M 0.0, 0.0 L 798.0, 0.0"/></g><g><path style="stroke: #00000; stroke-width: 5px; stroke-opacity: 1" d="M 0.0, 0.0 L 798.0, 0.0"/></g><g><path style="stroke: #00000; stroke-width: 5px; stroke-opacity: 1" d="M 0.0, 0.0 L 798.0, 0.0"/></g><g><path style="stroke: #00000; stroke-width: 5px; stroke-opacity: 1" d="M 0.0, 0.0 L 798.0, 0.0"/></g><g><path style="stroke: #00000; stroke-width: 5px; stroke-opacity: 1" d="M 0.0, 0.0 L 798.0, 0.0"/></g><g><path style="stroke: #00000; stroke-width: 5px; stroke-opacity: 1" d="M 0.0, 0.0 L 798.0, 0.0"/></g><g><path style="stroke: #00000; stroke-width: 5px; stroke-opacity: 1" d="M 0.0, 0.0 L 798.0, 0.0"/></g><g><path style="stroke: #00000; stroke-width: 5px; stroke-opacity: 1" d="M 0.0, 0.0 L 798.0, 0.0"/></g><g><path style="stroke: #00000; stroke-width: 5px; stroke-opacity: 1" d="M 0.0, 0.0 L 798.0, 0.0"/></g><g><path style="stroke: #00000; stroke-width: 5px; stroke-opacity: 1" d="M 0.0, 0.0 L 798.0, 0.0"/></g><g><path style="stroke: #00000; stroke-width: 5px; stroke-opacity: 1" d="M 0.0, 0.0 L 798.0, 0.0"/></g><g><path style="stroke: #00000; stroke-width: 5px; stroke-opacity: 1" d="M 0.0, 0.0 L 798.0, 0.0"/></g><g><path style="stroke: #00000; stroke-width: 5px; stroke-opacity: 1" d="M 0.0, 0.0 L 798.0, 0.0"/></g><g><path style="stroke: #00000; stroke-width: 5px; stroke-opacity: 1" d="M 0.0, 0.0 L 798.0, 0.0"/></g><g><path style="stroke: #00000; stroke-width: 5px; stroke-opacity: 1" d="M 0.0, 0.0 L 798.0, 0.0"/></g><g><path style="stroke: #00000; stroke-width: 5px; stroke-opacity: 1" d="M 0.0, 0.0 L 798.0, 0.0"/></g><g><path style="stroke: #00000; stroke-width: 5px; stroke-opacity: 1" d="M 0.0, 0.0 L 798.0, 0.0"/></g><g><path style="stroke: #00000; stroke-width: 5px; stroke-opacity: 1" d="M 0.0, 0.0 L 798.0, 0.0"/></g><g><path style="stroke: #00000; stroke-width: 5px; stroke-opacity: 1" d="M 0.0, 0.0 L 798.0, 0.0"/></g><g><path style="stroke: #00000; stroke-width: 5px; stroke-opacity: 1" d="M 0.0, 0.0 L 798.0, 0.0"/></g><g><path style="stroke: #00000; stroke-width: 5px; stroke-opacity: 1" d="M 0.0, 0.0 L 798.0, 0.0"/></g><g><path style="stroke: #00000; stroke-width: 5px; stroke-opacity: 1" d="M 0.0, 0.0 L 798.0, 0.0"/></g><g><path style="stroke: #00000; stroke-width: 5px; stroke-opacity: 1" d="M 0.0, 0.0 L 798.0, 0.0"/></g><g><path style="stroke: #00000; stroke-width: 5px; stroke-opacity: 1" d="M 0.0, 0.0 L 798.0, 0.0"/></g><g><path style="stroke: #00000; stroke-width: 5px; stroke-opacity: 1" d="M 0.0, 0.0 L 798.0, 0.0"/></g><g><path style="stroke: #00000; stroke-width: 5px; stroke-opacity: 1" d="M 0.0, 0.0 L 798.0, 0.0"/></g><g><path style="stroke: #00000; stroke-width: 5px; stroke-opacity: 1" d="M 0.0, 0.0 L 798.0, 0.0"/></g><g><path style="stroke: #00000; stroke-width: 5px; stroke-opacity: 1" d="M 0.0, 0.0 L 798.0, 0.0"/></g><g><path style="stroke: #00000; stroke-width: 5px; stroke-opacity: 1" d="M 0.0, 0.0 L 798.0, 0.0"/></g><g><path style="stroke: #00000; stroke-width: 5px; stroke-opacity: 1" d="M 0.0, 0.0 L 798.0, 0.0"/></g><g><path style="stroke: #00000; stroke-width: 5px; stroke-opacity: 1" d="M 0.0, 0.0 L 798.0, 0.0"/></g><g><path style="stroke: #00000; stroke-width: 5px; stroke-opacity: 1" d="M 0.0, 0.0 L 798.0, 0.0"/></g><g><path style="stroke: #00000; stroke-width: 5px; stroke-opacity: 1" d="M 0.0, 0.0 L 798.0, 0.0"/></g><g><path style="stroke: #00000; stroke-width: 5px; stroke-opacity: 1" d="M 0.0, 0.0 L 798.0, 0.0"/></g><g><path style="stroke: #00000; stroke-width: 5px; stroke-opacity: 1" d="M 0.0, 0.0 L 798.0, 0.0"/></g><g><path style="stroke: #00000; stroke-width: 5px; stroke-opacity: 1" d="M 0.0, 0.0 L 798.0, 0.0"/></g><g><path style="stroke: #00000; stroke-width: 5px; stroke-opacity: 1" d="M 0.0, 0.0 L 798.0, 0.0"/></g><g><path style="stroke: #00000; stroke-width: 5px; stroke-opacity: 1" d="M 0.0, 0.0 L 798.0, 0.0"/></g><g><path style="stroke: #00000; stroke-width: 5px; stroke-opacity: 1" d="M 0.0, 0.0 L 798.0, 0.0"/></g><g><path style="stroke: #00000; stroke-width: 5px; stroke-opacity: 1" d="M 0.0, 0.0 L 798.0, 0.0"/></g><g><path style="stroke: #00000; stroke-width: 5px; stroke-opacity: 1" d="M 0.0, 0.0 L 798.0, 0.0"/></g><g><path style="stroke: #00000; stroke-width: 5px; stroke-opacity: 1" d="M 0.0, 0.0 L 798.0, 0.0"/></g><g><path style="stroke: #00000; stroke-width: 5px; stroke-opacity: 1" d="M 0.0, 0.0 L 798.0, 0.0"/></g><g><path style="stroke: #00000; stroke-width: 5px; stroke-opacity: 1" d="M 0.0, 0.0 L 798.0, 0.0"/></g><g><path style="stroke: #00000; stroke-width: 5px; stroke-opacity: 1" d="M 0.0, 0.0 L 798.0, 0.0"/></g><g><path style="stroke: #00000; stroke-width: 5px; stroke-opacity: 1" d="M 0.0, 0.0 L 798.0, 0.0"/></g><g><path style="stroke: #00000; stroke-width: 5px; stroke-opacity: 1" d="M 0.0, 0.0 L 798.0, 0.0"/></g><g><path style="stroke: #00000; stroke-width: 5px; stroke-opacity: 1" d="M 0.0, 0.0 L 798.0, 0.0"/></g></svg>