<?xml version="1.0" encoding="UTF-8" standalone="no"?><svg xmlns="http://www.w3.org/2000/svg" xmlns:xlink="http://www.w3.org/1999/xlink" contentScriptType="text/ecmascript" width="1563.75" zoomAndPan="magnify" contentStyleType="text/css" height="1547.5" preserveAspectRatio="xMidYMid meet" version="1.0"><g><g transform="translate(367.94,0.0)"><rect x="30.0" width="246.62" height="30.0" y="0.0" style="fill:#ff0000"/><rect x="276.62" width="30.0" height="130.0" y="30.0" style="fill:#ff0000"/><rect x="30.0" width="246.62" height="30.0" y="160.0" style="fill:#ff0000"/><rect x="0.0" width="30.0" height="130.0" y="30.0" style="fill:#ff0000"/><circle r="30.0" style="fill:#ff0000" cx="30.0" cy="30.0"/><circle r="30.0" style="fill:#ff0000" cx="276.62" cy="30.0"/><circle r="30.0" style="fill:#ff0000" cx="276.62" cy="160.0"/><circle r="30.0" style="fill:#ff0000" cx="30.0" cy="160.0"/><rect x="20.0" width="266.62" height="150.0" y="20.0" style="fill:#ff0000"/><g><text x="45.0" style="font-size:100pt;font-family:Caracteres L2serre;fill:#FFFFFF" y="145.0">N</text><text x="116.625" style="font-size:100pt;font-family:Caracteres L2serre;fill:#FFFFFF" y="145.0"> </text><text x="201.12" style="font-size:100pt;font-family:Caracteres L2serre;fill:#FFFFFF" y="145.0">7</text></g></g><g transform="translate(0.0,215.0)"><rect x="30.0" width="1206.5" height="20.0" y="0.0" style="fill:#FFFFFF"/><rect x="30.0" width="1206.5" height="20.0" y="457.5" style="fill:#FFFFFF"/><rect x="0.0" width="30.0" height="417.5" y="30.0" style="fill:#FFFFFF"/><circle r="30.0" style="fill:#FFFFFF" cx="30.0" cy="30.0"/><circle r="30.0" style="fill:#FFFFFF" cx="30.0" cy="447.5"/><rect x="30.0" width="1216.5" height="437.5" y="20.0" style="fill:#008048"/><rect x="20.0" width="30.0" height="417.5" y="30.0" style="fill:#008048"/><circle r="10.0" style="fill:#008048" cx="30.0" cy="30.0"/><circle r="10.0" style="fill:#008048" cx="30.0" cy="447.5"/><g/><g><path style="fill:#FFFFFF" d="M 1236.5,0 1525.7470994193318,199.01390418749403 C 1578.7595635424218, 238.75 1525.7470994193318,278.48609581250594 1525.7470994193318,278.48609581250594 L 1236.5,477.5 1236.5,457.5 1446.27490779432,238.75 1236.5,20.0Z"/><path style="fill:#008048" d="M 1236.5,457.5 1446.27490779432,238.75 1236.5,20.0Z"/></g><g><text x="82.5" style="font-size:125pt;font-family:Caracteres L2serre;fill:#FFFFFF" y="207.5">G</text><text x="190.25" style="font-size:125pt;font-family:Caracteres L2serre;fill:#FFFFFF" y="207.5">E</text><text x="292.875" style="font-size:125pt;font-family:Caracteres L2serre;fill:#FFFFFF" y="207.5">N</text><text x="399.4375" style="font-size:125pt;font-family:Caracteres L2serre;fill:#FFFFFF" y="207.5">E</text><text x="497.5625" style="font-size:125pt;font-family:Caracteres L2serre;fill:#FFFFFF" y="207.5">R</text><text x="599.0625" style="font-size:125pt;font-family:Caracteres L2serre;fill:#FFFFFF" y="207.5">A</text><text x="696.5625" style="font-size:125pt;font-family:Caracteres L2serre;fill:#FFFFFF" y="207.5">T</text><text x="789.9375" style="font-size:125pt;font-family:Caracteres L2serre;fill:#FFFFFF" y="207.5">E</text><text x="892.5625" style="font-size:125pt;font-family:Caracteres L2serre;fill:#FFFFFF" y="207.5">U</text><text x="997.5625" style="font-size:125pt;font-family:Caracteres L2serre;fill:#FFFFFF" y="207.5">R</text></g><g><text x="82.5" style="font-size:125pt;font-family:Caracteres L2serre;fill:#FFFFFF" y="395.0">D</text><text x="189.6875" style="font-size:125pt;font-family:Caracteres L2serre;fill:#FFFFFF" y="395.0">E</text><text x="267.6875" style="font-size:125pt;font-family:Caracteres L2serre;fill:#FFFFFF" y="395.0"> </text><text x="370.2125" style="font-size:125pt;font-family:Caracteres L2serre;fill:#FFFFFF" y="395.0">P</text><text x="471.7125" style="font-size:125pt;font-family:Caracteres L2serre;fill:#FFFFFF" y="395.0">A</text><text x="583.2125" style="font-size:125pt;font-family:Caracteres L2serre;fill:#FFFFFF" y="395.0">N</text><text x="694.275" style="font-size:125pt;font-family:Caracteres L2serre;fill:#FFFFFF" y="395.0">N</text><text x="800.8375" style="font-size:125pt;font-family:Caracteres L2serre;fill:#FFFFFF" y="395.0">E</text><text x="892.9625" style="font-size:125pt;font-family:Caracteres L2serre;fill:#FFFFFF" y="395.0">A</text><text x="1004.4625" style="font-size:125pt;font-family:Caracteres L2serre;fill:#FFFFFF" y="395.0">U</text><text x="1102.4625" style="font-size:125pt;font-family:Caracteres L2serre;fill:#FFFFFF" y="395.0">X</text></g></g><g transform="translate(0.0,717.5)"><rect x="266.0" width="1277.75" height="20.0" y="0.0" style="fill:#000000"/><rect x="266.0" width="1277.75" height="20.0" y="370.0" style="fill:#000000"/><rect x="1543.75" width="20.0" height="350.0" y="20.0" style="fill:#000000"/><circle r="20.0" style="fill:#000000" cx="1543.75" cy="20.0"/><circle r="20.0" style="fill:#000000" cx="1543.75" cy="370.0"/><rect x="266.0" width="1277.75" height="350.0" y="20.0" style="fill:#FFFFFF"/><g/><g><path style="fill:#000000" d="M 266.0,0 29.56338495856491,160.69165559701045 C -13.541842474438624, 195.0 29.56338495856491,229.30834440298955 29.56338495856491,229.30834440298955 L 266.0,390.0 266.0,370.0 98.180073764544,195.0 266.0,20.0Z"/><path style="fill:#FFFFFF" d="M 266.0,370.0 98.180073764544,195.0 266.0,20.0Z"/></g><g><text x="449.5" style="font-size:100pt;font-family:Caracteres L1serre;fill:#000000" y="170.0">O</text><text x="548.25" style="font-size:100pt;font-family:Caracteres L1serre;fill:#000000" y="170.0">P</text><text x="654.0" style="font-size:100pt;font-family:Caracteres L1serre;fill:#000000" y="170.0">E</text><text x="758.5" style="font-size:100pt;font-family:Caracteres L1serre;fill:#000000" y="170.0">N</text><text x="873.375" style="font-size:100pt;font-family:Caracteres L1serre;fill:#000000" y="170.0"> </text><text x="920.25" style="font-size:100pt;font-family:Caracteres L1serre;fill:#000000" y="170.0">S</text><text x="1024.25" style="font-size:100pt;font-family:Caracteres L1serre;fill:#000000" y="170.0">O</text><text x="1130.5" style="font-size:100pt;font-family:Caracteres L1serre;fill:#000000" y="170.0">U</text><text x="1232.5" style="font-size:100pt;font-family:Caracteres L1serre;fill:#000000" y="170.0">R</text><text x="1332.0" style="font-size:100pt;font-family:Caracteres L1serre;fill:#000000" y="170.0">C</text><text x="1431.25" style="font-size:100pt;font-family:Caracteres L1serre;fill:#000000" y="170.0">E</text></g><g><text x="663.75" style="font-size:100pt;font-family:Caracteres L1serre;fill:#000000" y="320.0">S</text><text x="767.75" style="font-size:100pt;font-family:Caracteres L1serre;fill:#000000" y="320.0">O</text><text x="874.0" style="font-size:100pt;font-family:Caracteres L1serre;fill:#000000" y="320.0">U</text><text x="976.0" style="font-size:100pt;font-family:Caracteres L1serre;fill:#000000" y="320.0">S</text><text x="1096.375" style="font-size:100pt;font-family:Caracteres L1serre;fill:#000000" y="320.0"> </text><text x="1143.25" style="font-size:100pt;font-family:Caracteres L1serre;fill:#000000" y="320.0">J</text><text x="1224.75" style="font-size:100pt;font-family:Caracteres L1serre;fill:#000000" y="320.0">A</text><text x="1320.75" style="font-size:100pt;font-family:Caracteres L1serre;fill:#000000" y="320.0">V</text><text x="1417.25" style="font-size:100pt;font-family:Caracteres L1serre;fill:#000000" y="320.0">A</text></g></g><g transform="translate(0.0,1132.5)"><rect x="30.0" width="1267.75" height="20.0" y="0.0" style="fill:#000000"/><rect x="30.0" width="1267.75" height="20.0" y="370.0" style="fill:#000000"/><rect x="0.0" width="30.0" height="330.0" y="30.0" style="fill:#000000"/><circle r="30.0" style="fill:#000000" cx="30.0" cy="30.0"/><circle r="30.0" style="fill:#000000" cx="30.0" cy="360.0"/><rect x="30.0" width="1277.75" height="350.0" y="20.0" style="fill:#FFFFFF"/><rect x="20.0" width="30.0" height="330.0" y="30.0" style="fill:#FFFFFF"/><circle r="10.0" style="fill:#FFFFFF" cx="30.0" cy="30.0"/><circle r="10.0" style="fill:#FFFFFF" cx="30.0" cy="360.0"/><g/><g><path style="fill:#000000" d="M 1297.75,0 1534.186615041435,160.69165559701045 C 1577.2918424744387, 195.0 1534.186615041435,229.30834440298955 1534.186615041435,229.30834440298955 L 1297.75,390.0 1297.75,370.0 1465.569926235456,195.0 1297.75,20.0Z"/><path style="fill:#FFFFFF" d="M 1297.75,370.0 1465.569926235456,195.0 1297.75,20.0Z"/></g><circle r="125.0" style="fill:#FFFFFF" cx="195.0" cy="195.0"/><circle r="119.0" style="fill:#ff0000" cx="195.0" cy="195.0"/><circle r="94.0" style="fill:#FFFFFF" cx="195.0" cy="195.0"/><g><text x="420.0" style="font-size:100pt;font-family:Caracteres L1serre;fill:#000000" y="170.0">P</text><text x="518.75" style="font-size:100pt;font-family:Caracteres L1serre;fill:#000000" y="170.0">A</text><text x="621.75" style="font-size:100pt;font-family:Caracteres L1serre;fill:#000000" y="170.0">R</text></g><g><text x="420.0" style="font-size:100pt;font-family:Caracteres L1serre;fill:#000000" y="320.0">C</text><text x="515.25" style="font-size:100pt;font-family:Caracteres L1serre;fill:#000000" y="320.0">A</text><text x="622.25" style="font-size:100pt;font-family:Caracteres L1serre;fill:#000000" y="320.0">I</text><text x="683.75" style="font-size:100pt;font-family:Caracteres L1serre;fill:#000000" y="320.0">L</text><text x="782.25" style="font-size:100pt;font-family:Caracteres L1serre;fill:#000000" y="320.0">L</text><text x="876.25" style="font-size:100pt;font-family:Caracteres L1serre;fill:#000000" y="320.0">O</text><text x="982.5" style="font-size:100pt;font-family:Caracteres L1serre;fill:#000000" y="320.0">U</text><text x="1113.0" style="font-size:100pt;font-family:Caracteres L1serre;fill:#000000" y="320.0">1</text><text x="1179.5" style="font-size:100pt;font-family:Caracteres L1serre;fill:#000000" y="320.0">5</text></g></g></g></svg>