<?xml version="1.0" encoding="UTF-8" standalone="no"?>
<svg
   xmlns:dc="http://purl.org/dc/elements/1.1/"
   xmlns:cc="http://creativecommons.org/ns#"
   xmlns:rdf="http://www.w3.org/1999/02/22-rdf-syntax-ns#"
   xmlns:svg="http://www.w3.org/2000/svg"
   xmlns="http://www.w3.org/2000/svg"
   xmlns:sodipodi="http://sodipodi.sourceforge.net/DTD/sodipodi-0.dtd"
   xmlns:inkscape="http://www.inkscape.org/namespaces/inkscape"
   width="503.00616"
   height="553.28125"
   viewBox="-50 -30 50.30062 55.328124"
   id="svg2"
   version="1.1"
   inkscape:version="0.48.4 r9939"
   sodipodi:docname="AJAX.svg">
  <metadata
     id="metadata14">
    <rdf:RDF>
      <cc:Work
         rdf:about="">
        <dc:format>image/svg+xml</dc:format>
        <dc:type
           rdf:resource="http://purl.org/dc/dcmitype/StillImage" />
        <dc:title></dc:title>
      </cc:Work>
    </rdf:RDF>
  </metadata>
  <defs
     id="defs12" />
  <sodipodi:namedview
     pagecolor="#ffffff"
     bordercolor="#666666"
     borderopacity="1"
     objecttolerance="10"
     gridtolerance="10"
     guidetolerance="10"
     inkscape:pageopacity="0"
     inkscape:pageshadow="2"
     inkscape:window-width="1280"
     inkscape:window-height="1001"
     id="namedview10"
     showgrid="false"
     fit-margin-top="1.5"
     fit-margin-left="1.5"
     fit-margin-right="1.5"
     fit-margin-bottom="1.5"
     inkscape:zoom="0.87990973"
     inkscape:cx="247.85521"
     inkscape:cy="206.24339"
     inkscape:window-x="-8"
     inkscape:window-y="-8"
     inkscape:window-maximized="1"
     inkscape:current-layer="svg2"
     showguides="true"
     inkscape:guide-bbox="true" />
  <path
     style="fill:#ffffff;stroke:#000000;stroke-width:0.2;stroke-miterlimit:4;stroke-opacity:1;stroke-dasharray:none"
     d="m -47.127814,-29.850002 c -2.102851,0 -3.384623,2.26687 -2.365625,4.05625 l 22.274995,38.609379 c 0.532571,0.915464 1.45303,1.367516 2.36875,1.3625 0.91572,0.005 1.836179,-0.447036 2.36875,-1.3625 l 22.27500284,-38.609379 c 1.018998,-1.78938 -0.262774,-4.05625 -2.36562504,-4.05625 z"
     id="path37759"
     inkscape:connector-curvature="0"
     sodipodi:nodetypes="scccccss" />
  <path
     style="fill:#c4121e;fill-opacity:0.98823529;fill-rule:evenodd;stroke:none"
     d="m -2.568448,-28.80013 c 1.269022,0.0052 2.09296184,1.222161 1.403125,2.425 l -22.287495,38.618754 c -0.357662,0.624542 -0.879931,0.894339 -1.396875,0.884375 -0.516944,0.01 -1.039213,-0.259833 -1.396875,-0.884375 L -48.534071,-26.37513 c -0.689837,-1.202839 0.134103,-2.4198 1.403125,-2.425 z"
     id="path37763"
     inkscape:connector-curvature="0"
     sodipodi:nodetypes="cccccccc" />
  <path
     inkscape:connector-curvature="0"
     d="m -24.849698,1.6706552 13.923502,-23.9986082 -27.847003,0.0052 13.923501,23.9933552 0,2.7e-5 z"
     style="fill:#ffffff;fill-opacity:1;fill-rule:evenodd;stroke:none"
     id="path37771"
     sodipodi:nodetypes="cccccc" />
  <path
     style="fill:#ffffff;fill-opacity:1;stroke:#000000;stroke-width:0.2;stroke-miterlimit:4;stroke-opacity:1;stroke-dasharray:none"
     d="m -10.349695,22.540159 c -2e-6,1.457403 -1.18056,2.63797 -2.637979,2.63797 l -23.724024,0 c -1.457417,0 -2.637976,-1.180567 -2.637975,-2.63797 l 4e-6,-5.524012 c 10e-7,-1.45742 1.180554,-2.637972 2.637976,-2.637972 l 23.724036,-8e-6 c 1.457411,0 2.637971,1.18056 2.637969,2.637972 z"
     id="rect3154"
     inkscape:connector-curvature="0"
     sodipodi:nodetypes="sssssssss" />
  <path
     inkscape:connector-curvature="0"
     d="m -36.258892,17.654831 0.455418,-0.22863 0.40751,-0.306589 0.343726,-0.379162 0.214315,-0.36853 1.28277,-0.01233 0,6.778838 -1.28277,0 0,-4.810388 -0.520904,0.329551 -0.582987,0.253436 -0.317078,0.09071 0,-1.346554 z"
     style="fill:#000000;fill-opacity:1;fill-rule:evenodd;stroke:none"
     id="path37817" />
  <path
     inkscape:connector-curvature="0"
     d="m -25.039445,17.92573 0.171792,-0.428771 0.256979,-0.377319 0.343726,-0.326008 0.37746,-0.237419 0.343726,-0.104889 0.01559,-0.01701 0.515518,-0.08646 0.513817,0.01843 0.37746,0.06945 0.01701,0.01701 0.428771,0.154216 0.377461,0.25868 0.326008,0.324307 0.223244,0.395037 0.119064,0.342024 0.01984,0 0.154216,0.825651 0.06662,0.855841 -0.03402,0.841526 -0.138908,0.841668 -0.04961,0.187809 -0.01984,0 -0.152373,0.428771 -0.25868,0.395178 -0.326008,0.30829 -0.393336,0.23912 -0.343725,0.120481 -0.01701,0.01843 -0.513816,0.08505 -0.515518,-0.03402 -0.37746,-0.05103 -0.01559,-0.01843 -0.430472,-0.171792 -0.393336,-0.256979 -0.292273,-0.326008 -0.239261,-0.395178 -0.120481,-0.341883 -0.01701,0 -0.154074,-0.823951 -0.06945,-0.841525 0.03544,-0.857542 0.136073,-0.839825 0.05103,-0.18951 m 1.252579,0.345427 -0.136073,0.735218 -0.05244,0.756622 0.05244,0.772497 0.136073,0.634298 0,-0.01701 0.119064,0.272855 0.207369,0.18951 0.23912,0.102055 0.01701,0.01984 0.377319,0.04961 0.37746,-0.04961 0.01701,-0.01984 0.256979,-0.102055 0.207228,-0.205527 0.08505,-0.256838 0.01701,0.01701 0.136073,-0.772497 0.05103,-0.75648 -0.05103,-0.754779 -0.136073,-0.634298 -0.01701,0 -0.10489,-0.256979 -0.205527,-0.187809 -0.239119,-0.120481 -0.01701,-0.01701 -0.377461,-0.05103 -0.377318,0.05103 -0.01701,0.01701 -0.256979,0.120481 -0.18951,0.205527 -0.119063,0.25868 z"
     style="fill:#000000;fill-opacity:1;fill-rule:evenodd;stroke:none"
     id="path37825" />
  <path
     inkscape:connector-curvature="0"
     d="m -31.507342,21.512342 0.154074,0.428771 0.25868,0.396879 0.30829,0.340182 0.393336,0.256979 0.430472,0.173635 0.08505,0.01559 0.01559,0 0.515518,0.08505 0.549252,-0.03402 0.205527,-0.05103 0.03402,0 0.430472,-0.154074 0.393336,-0.239262 0.343725,-0.345426 0.258681,-0.375618 0.170091,-0.446489 0.06945,-0.44649 -0.03402,-0.480082 -0.120481,-0.446489 -0.223244,-0.412896 -0.310133,-0.359601 -0.377319,-0.274697 -0.426928,-0.187809 -0.292415,-0.08646 -0.01701,0 -0.547552,-0.04961 -0.56697,0.04961 -0.01701,0.01701 0.120481,-1.217285 2.351155,0 0,-1.321749 -3.552423,0 -0.326008,3.123651 1.165833,0.908853 0.379161,-0.155916 0.393336,-0.06662 0.361443,0.03402 0.03402,0 0.256979,0.08646 0.223245,0.187809 0.155917,0.256979 0.04961,0.292273 -0.04961,0.276399 -0.138908,0.255137 -0.205527,0.189509 -0.256837,0.102055 -0.01701,0.01559 -0.395178,0.03402 -0.292415,-0.03402 -0.01559,-0.01559 -0.276398,-0.120481 -0.205527,-0.18951 -0.136072,-0.256838 -0.01701,-0.06945 -1.286313,0.310133 z"
     style="fill:#000000;fill-opacity:1;fill-rule:evenodd;stroke:none"
     id="path37833" />
  <path
     inkscape:connector-curvature="0"
     d="m -15.393156,21.243754 0,1.89935 -0.777742,0 0,-1.89935 c -0.0035,-0.942589 -1.160588,-0.981568 -1.160588,0 l 0.0054,1.89935 -0.781285,0 0,-3.338038 0.77604,0 0,0.23912 c 0.450033,-0.341884 1.259808,-0.398581 1.706226,0.288871 0.51736,-0.671435 2.170433,-1.133941 2.17752,0.910697 l 0.0071,1.89935 -0.781426,0 -0.0035,-1.89935 c 0,-0.951519 -1.167533,-0.951519 -1.167533,0"
     style="fill:#000000;fill-opacity:1;fill-rule:evenodd;stroke:none"
     id="path37841" />
</svg>
