<?xml version="1.0" encoding="UTF-8" standalone="no"?>
<svg
   xmlns:dc="http://purl.org/dc/elements/1.1/"
   xmlns:cc="http://creativecommons.org/ns#"
   xmlns:rdf="http://www.w3.org/1999/02/22-rdf-syntax-ns#"
   xmlns:svg="http://www.w3.org/2000/svg"
   xmlns="http://www.w3.org/2000/svg"
   xmlns:sodipodi="http://sodipodi.sourceforge.net/DTD/sodipodi-0.dtd"
   xmlns:inkscape="http://www.inkscape.org/namespaces/inkscape"
   width="503.00616"
   height="715.28143"
   viewBox="-50 -30 50.30062 71.528142"
   id="svg2"
   version="1.1"
   inkscape:version="0.48.4 r9939"
   sodipodi:docname="AJAX.svg">
  <metadata
     id="metadata14">
    <rdf:RDF>
      <cc:Work
         rdf:about="">
        <dc:format>image/svg+xml</dc:format>
        <dc:type
           rdf:resource="http://purl.org/dc/dcmitype/StillImage" />
        <dc:title></dc:title>
      </cc:Work>
    </rdf:RDF>
  </metadata>
  <defs
     id="defs12" />
  <sodipodi:namedview
     pagecolor="#ffffff"
     bordercolor="#666666"
     borderopacity="1"
     objecttolerance="10"
     gridtolerance="10"
     guidetolerance="10"
     inkscape:pageopacity="0"
     inkscape:pageshadow="2"
     inkscape:window-width="1280"
     inkscape:window-height="1001"
     id="namedview10"
     showgrid="false"
     fit-margin-top="1.5"
     fit-margin-left="1.5"
     fit-margin-right="1.5"
     fit-margin-bottom="1.5"
     inkscape:zoom="0.87990973"
     inkscape:cx="247.85523"
     inkscape:cy="319.84395"
     inkscape:window-x="-8"
     inkscape:window-y="-8"
     inkscape:window-maximized="1"
     inkscape:current-layer="svg2"
     showguides="true"
     inkscape:guide-bbox="true" />
  <path
     style="fill:#ffffff;stroke:#000000;stroke-opacity:1;stroke-width:0.20000001;stroke-miterlimit:4;stroke-dasharray:none"
     d="m -2.5715648,-29.850003 c 2.10285087,0 3.38462287,2.26687 2.36562487,4.05625 L -22.480936,12.815626 c -0.532571,0.915464 -1.45303,1.367516 -2.36875,1.3625 -0.91572,0.005 -1.836179,-0.447036 -2.36875,-1.3625 l -22.275003,-38.609379 c -1.018998,-1.78938 0.262774,-4.05625 2.365625,-4.05625 z"
     id="path37759"
     inkscape:connector-curvature="0"
     sodipodi:nodetypes="scccccss" />
  <path
     style="fill:#c4121e;fill-opacity:0.98823529;fill-rule:evenodd;stroke:none"
     d="m -2.5684468,-28.800131 c 1.269022,0.0052 2.09296187,1.222161 1.403125,2.425 L -23.452818,12.243623 c -0.357662,0.624542 -0.879931,0.894339 -1.396875,0.884375 -0.516944,0.01 -1.039213,-0.259833 -1.396875,-0.884375 l -22.287503,-38.618754 c -0.689837,-1.202839 0.134103,-2.4198 1.403125,-2.425 z"
     id="path37763"
     inkscape:connector-curvature="0"
     sodipodi:nodetypes="cccccccc" />
  <path
     inkscape:connector-curvature="0"
     d="m -24.849698,1.6706563 13.923502,-23.9986103 -27.847003,0.0052 13.923501,23.9933573 0,2.7e-5 z"
     style="fill:#ffffff;fill-opacity:1;fill-rule:evenodd;stroke:none"
     id="path37771"
     sodipodi:nodetypes="cccccc" />
  <path
     style="fill:#ffffff;fill-opacity:1;stroke:#000000;stroke-opacity:1;stroke-width:0.20000001;stroke-miterlimit:4;stroke-dasharray:none"
     d="m -38.349692,38.740173 c 0,1.457403 1.18056,2.63797 2.637979,2.63797 l 21.724032,0 c 1.457417,0 2.637975,-1.180567 2.637975,-2.63797 l -4e-6,-21.724026 c 0,-1.45742 -1.180554,-2.637971 -2.637976,-2.637972 l -21.724044,-8e-6 c -1.457411,-10e-7 -2.637969,1.18056 -2.637969,2.637972 z"
     id="rect3154"
     inkscape:connector-curvature="0"
     sodipodi:nodetypes="sssssssss" />
  <path
     inkscape:connector-curvature="0"
     d="m -24.230448,20.611959 0.232175,-0.384547 0.317078,-0.331252 0.382705,-0.249893 0.432314,-0.184265 0.44819,-0.0652 0.467751,0.01701 0.432314,0.133238 0.398722,0.216157 0.366688,0.281643 0.265767,0.366829 0.117647,0.200141 -0.01559,-0.01843 0.249892,0.614879 0.133238,0.634298 0.04819,0.648472 0.01701,0.51566 -0.01701,0 -0.04819,0.66619 -0.15053,0.648472 -0.232175,0.598862 0.01559,-0.01559 -0.249892,0.382704 -0.315377,0.333095 -0.382705,0.249751 -0.41644,0.182564 -0.465908,0.06662 -0.450032,-0.03402 -0.450033,-0.117646 -0.398722,-0.216158 -0.349111,-0.283485 -0.283486,-0.364987 -0.09922,-0.20014 0.01559,0.01559 -0.249892,-0.614879 -0.148829,-0.632455 -0.04961,-0.66619 -0.01701,-0.515659 0.01701,0 0.04961,-0.66619 0.148829,-0.630755 0.249892,-0.600563 -0.01559,0.01843 m 1.130397,0.51736 -0.19844,0.513817 -0.100637,0.56697 0,0.281642 -0.01559,0.51566 0.01559,0 0.05103,0.581144 0.133238,0.519203 0.114812,0.281784 -0.01559,-0.01843 0.182564,0.233875 0.251593,0.168248 0.264067,0.08079 0.29936,0 0.26761,-0.117647 0.232174,-0.184265 0.116229,-0.182565 0,0.01843 0.184265,-0.51736 0.09922,-0.56527 0.01559,-0.29936 0.01701,-0.515659 -0.01701,0 -0.04819,-0.565128 -0.152373,-0.515517 -0.09922,-0.281643 0,0.01559 -0.166547,-0.235718 -0.24805,-0.164705 -0.283485,-0.100637 -0.283485,0.01701 -0.281784,0.117646 -0.217858,0.184266 -0.133238,0.182564 0.01559,-0.01559 z"
     style="fill:#000000;fill-opacity:1;fill-rule:evenodd;stroke:none"
     id="path37785" />
  <path
     inkscape:connector-curvature="0"
     d="m -17.916526,26.136914 0,-6.589257 2.179292,0 0.483625,0.04819 0.430614,0.150672 0.418141,0.232174 0.364987,0.333095 0.283485,0.366688 0.20014,0.432315 0.09922,0.466049 0,0.481925 -0.08363,0.467751 -0.182564,0.430472 -0.26761,0.382705 -0.349112,0.334795 -0.400423,0.24805 -0.44819,0.168248 -0.466049,0.0652 -0.999285,0 0,1.980852 -1.263352,0 m 1.263352,-3.228187 0.91594,0 0.315377,-0.05103 0.283485,-0.133238 0.233876,-0.233875 0.164846,-0.281784 0.04961,-0.31722 -0.0326,-0.315377 -0.133238,-0.281643 -0.217858,-0.251593 -0.265767,-0.166547 -0.315378,-0.0652 -0.999284,0 0,2.09779 z"
     style="fill:#000000;fill-opacity:1;fill-rule:evenodd;stroke:none"
     id="path37793" />
  <path
     inkscape:connector-curvature="0"
     d="m -36.232144,24.725512 0.221544,0.393336 0.30829,0.345427 0.25868,0.196738 -0.01417,-0.01063 0.492555,0.255136 0.517361,0.161303 0.542165,0.07512 0.554638,-0.02551 0.529692,-0.134655 0.171792,-0.06237 0.01417,0 0.380863,-0.19844 0.31892,-0.294115 0.258681,-0.345427 0.161303,-0.405809 0.07229,-0.41814 -0.03685,-0.432315 -0.121898,-0.418141 -0.209071,-0.36853 -0.295816,-0.320622 -0.3579,-0.246349 -0.244506,-0.111976 -1.738118,-0.600563 -0.01233,0 -0.196597,-0.124734 -0.123316,-0.185966 -0.02268,-0.221544 0.06237,-0.221543 0.159461,-0.159461 0.06237,-0.04961 0,0.01247 0.380863,-0.136073 0.395178,-0.03685 0.393335,0.06378 0.333095,0.121899 -0.02693,0 0.233875,0.184265 0.14883,0.221544 1.071999,-0.455277 -0.196597,-0.393336 -0.283485,-0.333095 -0.3579,-0.25868 -0.171792,-0.0978 0.02551,0 -0.505029,-0.184265 -0.51736,-0.08646 -0.529834,0.02268 -0.51736,0.111977 -0.418141,0.161303 0,0.01063 -0.343725,0.223245 -0.271154,0.306589 -0.210771,0.3579 -0.111977,0.393336 -0.01063,0.419983 0.07229,0.403966 0.186108,0.370373 0.25868,0.320764 0.320764,0.25868 0.281642,0.134655 1.761151,0.61658 0,0.01233 0.221544,0.121898 0.14883,0.210772 0.06095,0.232174 -0.02551,0.260381 -0.121898,0.221544 -0.19844,0.148829 -0.05953,0.02268 -0.01233,0 -0.405667,0.111977 -0.419984,0.01063 -0.405667,-0.08505 -0.370373,-0.159461 -0.246349,-0.198439 -0.05953,-0.0978 -1.220829,0.366829 0.01417,0.01418 z"
     style="fill:#000000;fill-opacity:1;fill-rule:evenodd;stroke:none"
     id="path37801" />
  <path
     inkscape:connector-curvature="0"
     d="m -28.77684,26.152676 0,-5.318889 -1.440459,0 0,-1.256123 4.137111,0 0,1.256123 -1.452861,0 0,5.318889 -1.243791,0 z"
     style="fill:#000000;fill-opacity:1;fill-rule:evenodd;stroke:none"
     id="path37809" />
  <path
     inkscape:connector-curvature="0"
     d="m -36.258899,30.80485 0.455418,-0.22863 0.40751,-0.306589 0.343726,-0.379162 0.214315,-0.36853 1.28277,-0.01233 0,6.778837 -1.28277,0 0,-4.810387 -0.520904,0.329551 -0.582987,0.253436 -0.317078,0.09071 0,-1.346554 z"
     style="fill:#000000;fill-opacity:1;fill-rule:evenodd;stroke:none"
     id="path37817" />
  <path
     inkscape:connector-curvature="0"
     d="m -25.039452,31.075749 0.171792,-0.428771 0.256979,-0.377319 0.343726,-0.326008 0.37746,-0.237419 0.343726,-0.104889 0.01559,-0.01701 0.515518,-0.08646 0.513817,0.01843 0.37746,0.06945 0.01701,0.01701 0.428771,0.154216 0.377461,0.25868 0.326008,0.324307 0.223244,0.395037 0.119064,0.342024 0.01984,0 0.154216,0.825651 0.06662,0.855841 -0.03402,0.841526 -0.138908,0.841667 -0.04961,0.187809 -0.01984,0 -0.152373,0.428771 -0.25868,0.395178 -0.326008,0.30829 -0.393336,0.23912 -0.343725,0.120481 -0.01701,0.01843 -0.513816,0.08505 -0.515518,-0.03402 -0.37746,-0.05103 -0.01559,-0.01843 -0.430472,-0.171792 -0.393336,-0.256979 -0.292273,-0.326008 -0.239261,-0.395178 -0.120481,-0.341883 -0.01701,0 -0.154074,-0.82395 -0.06945,-0.841525 0.03544,-0.857542 0.136073,-0.839825 0.05103,-0.18951 m 1.252579,0.345427 -0.136073,0.735218 -0.05244,0.756622 0.05244,0.772497 0.136073,0.634298 0,-0.01701 0.119064,0.272854 0.207369,0.18951 0.23912,0.102055 0.01701,0.01984 0.377319,0.04961 0.37746,-0.04961 0.01701,-0.01984 0.256979,-0.102055 0.207228,-0.205527 0.08505,-0.256837 0.01701,0.01701 0.136073,-0.772497 0.05103,-0.75648 -0.05103,-0.754779 -0.136073,-0.634298 -0.01701,0 -0.10489,-0.256979 -0.205527,-0.187809 -0.239119,-0.120481 -0.01701,-0.01701 -0.377461,-0.05103 -0.377318,0.05103 -0.01701,0.01701 -0.256979,0.120481 -0.18951,0.205527 -0.119063,0.25868 z"
     style="fill:#000000;fill-opacity:1;fill-rule:evenodd;stroke:none"
     id="path37825" />
  <path
     inkscape:connector-curvature="0"
     d="m -31.507349,34.66236 0.154074,0.428771 0.25868,0.396879 0.30829,0.340182 0.393336,0.256979 0.430472,0.173635 0.08505,0.01559 0.01559,0 0.515518,0.08505 0.549252,-0.03402 0.205527,-0.05103 0.03402,0 0.430472,-0.154074 0.393336,-0.239262 0.343725,-0.345426 0.258681,-0.375618 0.170091,-0.446489 0.06945,-0.446489 -0.03402,-0.480082 -0.120481,-0.446489 -0.223244,-0.412896 -0.310133,-0.359601 -0.377319,-0.274697 -0.426928,-0.187809 -0.292415,-0.08646 -0.01701,0 -0.547552,-0.04961 -0.56697,0.04961 -0.01701,0.01701 0.120481,-1.217285 2.351155,0 0,-1.321749 -3.552423,0 -0.326008,3.123651 1.165833,0.908853 0.379161,-0.155916 0.393336,-0.06662 0.361443,0.03402 0.03402,0 0.256979,0.08646 0.223245,0.187809 0.155917,0.256979 0.04961,0.292273 -0.04961,0.276398 -0.138908,0.255137 -0.205527,0.189509 -0.256837,0.102055 -0.01701,0.01559 -0.395178,0.03402 -0.292415,-0.03402 -0.01559,-0.01559 -0.276398,-0.120481 -0.205527,-0.18951 -0.136072,-0.256838 -0.01701,-0.06945 -1.286313,0.310133 z"
     style="fill:#000000;fill-opacity:1;fill-rule:evenodd;stroke:none"
     id="path37833" />
  <path
     inkscape:connector-curvature="0"
     d="m -15.393163,34.393772 0,1.89935 -0.777742,0 0,-1.89935 c -0.0035,-0.942588 -1.160588,-0.981567 -1.160588,0 l 0.0054,1.89935 -0.781285,0 0,-3.338037 0.77604,0 0,0.23912 c 0.450033,-0.341884 1.259808,-0.398581 1.706226,0.288871 0.51736,-0.671435 2.170433,-1.133941 2.17752,0.910696 l 0.0071,1.89935 -0.781426,0 -0.0035,-1.89935 c 0,-0.951518 -1.167533,-0.951518 -1.167533,0"
     style="fill:#000000;fill-opacity:1;fill-rule:evenodd;stroke:none"
     id="path37841" />
</svg>
